<svg version="1.1" xmlns="http://www.w3.org/2000/svg" xmlns:xlink="http://www.w3.org/1999/xlink" x="0px" y="0px"
	 viewBox="0 0 496 496" xml:space="preserve">
		<path style="fill:#565D66;" d="M456,496H192c-13.2,0-24-10.8-24-24V232c0-4.4,3.6-8,8-8c4.4,0,8,3.6,8,8v240c0,4.4,3.6,8,8,8h264
			c4.4,0,8-3.6,8-8V112c0-4.4-3.6-8-8-8H280v72c0,13.2-10.8,24-24,24h-80c-3.2,0-6.2-1.9-7.4-4.9c-1.2-3-0.6-6.4,1.7-8.7l96-96
			c0.1-0.1,0.1-0.1,0.2-0.2c0,0,0,0,0,0c0,0,0,0,0,0c1.4-1.3,3.4-2.2,5.5-2.2c0,0,0,0,0,0h184c13.2,0,24,10.8,24,24v360
			C480,485.2,469.2,496,456,496z M195.3,184H256c4.4,0,8-3.6,8-8v-60.7L195.3,184z"/>
		<path style="fill:#565D66;" d="M104,112H24c-3.2,0-6.2-1.9-7.4-4.9c-1.2-3-0.6-6.4,1.7-8.7l96-96c1.4-1.5,3.4-2.4,5.7-2.4
			c0,0,0,0,0,0h184c13.2,0,24,10.8,24,24v32c0,4.4-3.6,8-8,8s-8-3.6-8-8V24c0-4.4-3.6-8-8-8H128v72C128,101.2,117.2,112,104,112z
			 M43.3,96H104c4.4,0,8-3.6,8-8V27.3L43.3,96z"/>
		<path style="fill:#565D66;" d="M136,408H40c-13.2,0-24-10.8-24-24V144c0-4.4,3.6-8,8-8c4.4,0,8,3.6,8,8v240c0,4.4,3.6,8,8,8h96
			c4.4,0,8,3.6,8,8S140.4,408,136,408z"/>
</svg>
